<svg width="1600" height="906" viewBox="0 0 1600 906" fill="none" xmlns="http://www.w3.org/2000/svg">
<g filter="url(#filter0_f_324_13792)">
<ellipse cx="1182.96" cy="508.91" rx="73.1057" ry="55.0896" fill="#9EA9E9"/>
</g>
<g opacity="0.1" filter="url(#filter1_f_324_13792)">
<circle cx="1144.97" cy="343.618" r="259.972" fill="url(#paint0_radial_324_13792)"/>
</g>
<g filter="url(#filter2_f_324_13792)">
<ellipse cx="1064.19" cy="584.486" rx="289.999" ry="192.486" fill="url(#paint1_linear_324_13792)" fill-opacity="0.5"/>
</g>
<g filter="url(#filter3_f_324_13792)">
<ellipse cx="556.921" cy="405.975" rx="289.999" ry="167.218" fill="url(#paint2_linear_324_13792)" fill-opacity="0.7"/>
</g>
<g filter="url(#filter4_f_324_13792)">
<circle cx="1253.21" cy="354.817" r="73.1057" fill="#38EDAC"/>
</g>
<g filter="url(#filter5_d_324_13792)">
<g style="mix-blend-mode:overlay">
<circle cx="1403.5" cy="364" r="1" transform="rotate(90 1403.5 364)" fill="white"/>
<circle cx="1357.08" cy="399.721" r="1" transform="rotate(90 1357.08 399.721)" fill="white"/>
<circle cx="1262.31" cy="449.836" r="1" transform="rotate(90 1262.31 449.836)" fill="white"/>
<circle cx="1364.54" cy="467.42" r="1" transform="rotate(90 1364.54 467.42)" fill="white"/>
<circle cx="1322.28" cy="522.867" r="1" transform="rotate(90 1322.28 522.867)" fill="white"/>
<circle cx="1264.31" cy="382.117" r="1" transform="rotate(90 1264.31 382.117)" fill="white"/>
<circle cx="1256.5" cy="502.604" r="1" transform="rotate(165 1256.5 502.604)" fill="white"/>
<circle cx="1209.98" cy="467.009" r="1" transform="rotate(165 1209.98 467.009)" fill="white"/>
<circle cx="1137.04" cy="388.441" r="1" transform="rotate(165 1137.04 388.441)" fill="white"/>
<circle cx="1146.52" cy="491.741" r="1" transform="rotate(165 1146.52 491.741)" fill="white"/>
<circle cx="1082.02" cy="465.266" r="1" transform="rotate(165 1082.02 465.266)" fill="white"/>
<circle cx="1202.97" cy="372.846" r="1" transform="rotate(165 1202.97 372.846)" fill="white"/>
<circle cx="1197.49" cy="719.491" r="1" transform="rotate(-133.665 1197.49 719.491)" fill="white"/>
<circle cx="1206.41" cy="661.6" r="1" transform="rotate(-133.665 1206.41 661.6)" fill="white"/>
<circle cx="1240.37" cy="559.915" r="1" transform="rotate(-133.665 1240.37 559.915)" fill="white"/>
<circle cx="1154.27" cy="617.781" r="1" transform="rotate(-133.665 1154.27 617.781)" fill="white"/>
<circle cx="1146.56" cy="548.488" r="1" transform="rotate(-133.665 1146.56 548.488)" fill="white"/>
<circle cx="1285.68" cy="610.284" r="1" transform="rotate(-133.665 1285.68 610.284)" fill="white"/>
</g>
<g style="mix-blend-mode:overlay">
<circle cx="1403.5" cy="364" r="1" transform="rotate(90 1403.5 364)" fill="white"/>
<circle cx="1357.08" cy="399.721" r="1" transform="rotate(90 1357.08 399.721)" fill="white"/>
<circle cx="1262.31" cy="449.836" r="1" transform="rotate(90 1262.31 449.836)" fill="white"/>
<circle cx="1364.54" cy="467.42" r="1" transform="rotate(90 1364.54 467.42)" fill="white"/>
<circle cx="1322.28" cy="522.867" r="1" transform="rotate(90 1322.28 522.867)" fill="white"/>
<circle cx="1264.31" cy="382.117" r="1" transform="rotate(90 1264.31 382.117)" fill="white"/>
<circle cx="1256.5" cy="502.604" r="1" transform="rotate(165 1256.5 502.604)" fill="white"/>
<circle cx="1209.98" cy="467.009" r="1" transform="rotate(165 1209.98 467.009)" fill="white"/>
<circle cx="1137.04" cy="388.441" r="1" transform="rotate(165 1137.04 388.441)" fill="white"/>
<circle cx="1146.52" cy="491.741" r="1" transform="rotate(165 1146.52 491.741)" fill="white"/>
<circle cx="1082.02" cy="465.266" r="1" transform="rotate(165 1082.02 465.266)" fill="white"/>
<circle cx="1202.97" cy="372.846" r="1" transform="rotate(165 1202.97 372.846)" fill="white"/>
<circle cx="1197.49" cy="719.491" r="1" transform="rotate(-133.665 1197.49 719.491)" fill="white"/>
<circle cx="1206.41" cy="661.6" r="1" transform="rotate(-133.665 1206.41 661.6)" fill="white"/>
<circle cx="1240.37" cy="559.915" r="1" transform="rotate(-133.665 1240.37 559.915)" fill="white"/>
<circle cx="1154.27" cy="617.781" r="1" transform="rotate(-133.665 1154.27 617.781)" fill="white"/>
<circle cx="1146.56" cy="548.488" r="1" transform="rotate(-133.665 1146.56 548.488)" fill="white"/>
<circle cx="1285.68" cy="610.284" r="1" transform="rotate(-133.665 1285.68 610.284)" fill="white"/>
</g>
</g>
<g filter="url(#filter6_d_324_13792)">
<g style="mix-blend-mode:overlay">
<circle cx="1209.77" cy="90.4071" r="1" transform="rotate(40.0897 1209.77 90.4071)" fill="white"/>
<circle cx="1207.2" cy="148.925" r="1" transform="rotate(40.0897 1207.2 148.925)" fill="white"/>
<circle cx="1184.51" cy="253.701" r="1" transform="rotate(40.0897 1184.51 253.701)" fill="white"/>
<circle cx="1263.8" cy="186.812" r="1" transform="rotate(40.0897 1263.8 186.812)" fill="white"/>
<circle cx="1279" cy="254.854" r="1" transform="rotate(40.0897 1279 254.854)" fill="white"/>
<circle cx="1133.99" cy="208.559" r="1" transform="rotate(40.0897 1133.99 208.559)" fill="white"/>
<circle cx="1221.14" cy="292.128" r="1" transform="rotate(115.09 1221.14 292.128)" fill="white"/>
<circle cx="1163.95" cy="304.794" r="1" transform="rotate(115.09 1163.95 304.794)" fill="white"/>
<circle cx="1056.87" cy="309.995" r="1" transform="rotate(115.09 1056.87 309.995)" fill="white"/>
<circle cx="1142" cy="369.27" r="1" transform="rotate(115.09 1142 369.27)" fill="white"/>
<circle cx="1080.21" cy="401.563" r="1" transform="rotate(115.09 1080.21 401.563)" fill="white"/>
<circle cx="1087.4" cy="249.513" r="1" transform="rotate(115.09 1087.4 249.513)" fill="white"/>
<circle cx="1349.06" cy="476.941" r="1" transform="rotate(176.425 1349.06 476.941)" fill="white"/>
<circle cx="1310.52" cy="432.837" r="1" transform="rotate(176.425 1310.52 432.837)" fill="white"/>
<circle cx="1254.59" cy="341.377" r="1" transform="rotate(176.425 1254.59 341.377)" fill="white"/>
<circle cx="1243.42" cy="444.507" r="1" transform="rotate(176.425 1243.42 444.507)" fill="white"/>
<circle cx="1185.44" cy="405.781" r="1" transform="rotate(176.425 1185.44 405.781)" fill="white"/>
<circle cx="1322.3" cy="339.151" r="1" transform="rotate(176.425 1322.3 339.151)" fill="white"/>
</g>
<g style="mix-blend-mode:overlay">
<circle cx="1209.77" cy="90.4071" r="1" transform="rotate(40.0897 1209.77 90.4071)" fill="white"/>
<circle cx="1207.2" cy="148.925" r="1" transform="rotate(40.0897 1207.2 148.925)" fill="white"/>
<circle cx="1184.51" cy="253.701" r="1" transform="rotate(40.0897 1184.51 253.701)" fill="white"/>
<circle cx="1263.8" cy="186.812" r="1" transform="rotate(40.0897 1263.8 186.812)" fill="white"/>
<circle cx="1279" cy="254.854" r="1" transform="rotate(40.0897 1279 254.854)" fill="white"/>
<circle cx="1133.99" cy="208.559" r="1" transform="rotate(40.0897 1133.99 208.559)" fill="white"/>
<circle cx="1221.14" cy="292.128" r="1" transform="rotate(115.09 1221.14 292.128)" fill="white"/>
<circle cx="1163.95" cy="304.794" r="1" transform="rotate(115.09 1163.95 304.794)" fill="white"/>
<circle cx="1056.87" cy="309.995" r="1" transform="rotate(115.09 1056.87 309.995)" fill="white"/>
<circle cx="1142" cy="369.27" r="1" transform="rotate(115.09 1142 369.27)" fill="white"/>
<circle cx="1080.21" cy="401.563" r="1" transform="rotate(115.09 1080.21 401.563)" fill="white"/>
<circle cx="1087.4" cy="249.513" r="1" transform="rotate(115.09 1087.4 249.513)" fill="white"/>
<circle cx="1349.06" cy="476.941" r="1" transform="rotate(176.425 1349.06 476.941)" fill="white"/>
<circle cx="1310.52" cy="432.837" r="1" transform="rotate(176.425 1310.52 432.837)" fill="white"/>
<circle cx="1254.59" cy="341.377" r="1" transform="rotate(176.425 1254.59 341.377)" fill="white"/>
<circle cx="1243.42" cy="444.507" r="1" transform="rotate(176.425 1243.42 444.507)" fill="white"/>
<circle cx="1185.44" cy="405.781" r="1" transform="rotate(176.425 1185.44 405.781)" fill="white"/>
<circle cx="1322.3" cy="339.151" r="1" transform="rotate(176.425 1322.3 339.151)" fill="white"/>
</g>
</g>
<g style="mix-blend-mode:overlay" filter="url(#filter7_f_324_13792)">
<g style="mix-blend-mode:overlay">
<circle cx="1499.53" cy="599.766" r="1" transform="rotate(121.593 1499.53 599.766)" fill="white"/>
<circle cx="1441.27" cy="605.873" r="1" transform="rotate(121.593 1441.27 605.873)" fill="white"/>
<circle cx="1334.29" cy="598.915" r="1" transform="rotate(121.593 1334.29 598.915)" fill="white"/>
<circle cx="1412.16" cy="667.45" r="1" transform="rotate(121.593 1412.16 667.45)" fill="white"/>
<circle cx="1347.11" cy="692.537" r="1" transform="rotate(121.593 1347.11 692.537)" fill="white"/>
<circle cx="1371.47" cy="542.279" r="1" transform="rotate(121.593 1371.47 542.279)" fill="white"/>
<circle cx="1301.7" cy="640.818" r="1" transform="rotate(-163.407 1301.7 640.818)" fill="white"/>
<circle cx="1280.72" cy="586.128" r="1" transform="rotate(-163.407 1280.72 586.128)" fill="white"/>
<circle cx="1259.76" cy="480.995" r="1" transform="rotate(-163.407 1259.76 480.995)" fill="white"/>
<circle cx="1213.71" cy="573.949" r="1" transform="rotate(-163.407 1213.71 573.949)" fill="white"/>
<circle cx="1172.64" cy="517.61" r="1" transform="rotate(-163.407 1172.64 517.61)" fill="white"/>
<circle cx="1324.08" cy="502.25" r="1" transform="rotate(-163.407 1324.08 502.25)" fill="white"/>
<circle cx="1137.82" cy="794.651" r="1" transform="rotate(-102.072 1137.82 794.651)" fill="white"/>
<circle cx="1175.74" cy="750.011" r="1" transform="rotate(-102.072 1175.74 750.011)" fill="white"/>
<circle cx="1257.93" cy="681.184" r="1" transform="rotate(-102.072 1257.93 681.184)" fill="white"/>
<circle cx="1154.28" cy="685.37" r="1" transform="rotate(-102.072 1154.28 685.37)" fill="white"/>
<circle cx="1184.02" cy="622.31" r="1" transform="rotate(-102.072 1184.02 622.31)" fill="white"/>
<circle cx="1270.14" cy="747.825" r="1" transform="rotate(-102.072 1270.14 747.825)" fill="white"/>
</g>
<g style="mix-blend-mode:overlay">
<circle cx="1499.53" cy="599.766" r="1" transform="rotate(121.593 1499.53 599.766)" fill="white"/>
<circle cx="1441.27" cy="605.873" r="1" transform="rotate(121.593 1441.27 605.873)" fill="white"/>
<circle cx="1334.29" cy="598.915" r="1" transform="rotate(121.593 1334.29 598.915)" fill="white"/>
<circle cx="1412.16" cy="667.45" r="1" transform="rotate(121.593 1412.16 667.45)" fill="white"/>
<circle cx="1347.11" cy="692.537" r="1" transform="rotate(121.593 1347.11 692.537)" fill="white"/>
<circle cx="1371.47" cy="542.279" r="1" transform="rotate(121.593 1371.47 542.279)" fill="white"/>
<circle cx="1301.7" cy="640.818" r="1" transform="rotate(-163.407 1301.7 640.818)" fill="white"/>
<circle cx="1280.72" cy="586.128" r="1" transform="rotate(-163.407 1280.72 586.128)" fill="white"/>
<circle cx="1259.76" cy="480.995" r="1" transform="rotate(-163.407 1259.76 480.995)" fill="white"/>
<circle cx="1213.71" cy="573.949" r="1" transform="rotate(-163.407 1213.71 573.949)" fill="white"/>
<circle cx="1172.64" cy="517.61" r="1" transform="rotate(-163.407 1172.64 517.61)" fill="white"/>
<circle cx="1324.08" cy="502.25" r="1" transform="rotate(-163.407 1324.08 502.25)" fill="white"/>
<circle cx="1137.82" cy="794.651" r="1" transform="rotate(-102.072 1137.82 794.651)" fill="white"/>
<circle cx="1175.74" cy="750.011" r="1" transform="rotate(-102.072 1175.74 750.011)" fill="white"/>
<circle cx="1257.93" cy="681.184" r="1" transform="rotate(-102.072 1257.93 681.184)" fill="white"/>
<circle cx="1154.28" cy="685.37" r="1" transform="rotate(-102.072 1154.28 685.37)" fill="white"/>
<circle cx="1184.02" cy="622.31" r="1" transform="rotate(-102.072 1184.02 622.31)" fill="white"/>
<circle cx="1270.14" cy="747.825" r="1" transform="rotate(-102.072 1270.14 747.825)" fill="white"/>
</g>
</g>
<g style="mix-blend-mode:overlay" filter="url(#filter8_f_324_13792)">
<g style="mix-blend-mode:overlay">
<circle cx="1499.53" cy="599.766" r="1" transform="rotate(121.593 1499.53 599.766)" fill="white"/>
<circle cx="1441.27" cy="605.873" r="1" transform="rotate(121.593 1441.27 605.873)" fill="white"/>
<circle cx="1334.29" cy="598.915" r="1" transform="rotate(121.593 1334.29 598.915)" fill="white"/>
<circle cx="1412.16" cy="667.45" r="1" transform="rotate(121.593 1412.16 667.45)" fill="white"/>
<circle cx="1347.11" cy="692.537" r="1" transform="rotate(121.593 1347.11 692.537)" fill="white"/>
<circle cx="1371.47" cy="542.279" r="1" transform="rotate(121.593 1371.47 542.279)" fill="white"/>
<circle cx="1301.7" cy="640.818" r="1" transform="rotate(-163.407 1301.7 640.818)" fill="white"/>
<circle cx="1280.72" cy="586.128" r="1" transform="rotate(-163.407 1280.72 586.128)" fill="white"/>
<circle cx="1259.76" cy="480.995" r="1" transform="rotate(-163.407 1259.76 480.995)" fill="white"/>
<circle cx="1213.71" cy="573.949" r="1" transform="rotate(-163.407 1213.71 573.949)" fill="white"/>
<circle cx="1172.64" cy="517.61" r="1" transform="rotate(-163.407 1172.64 517.61)" fill="white"/>
<circle cx="1324.08" cy="502.25" r="1" transform="rotate(-163.407 1324.08 502.25)" fill="white"/>
<circle cx="1137.82" cy="794.651" r="1" transform="rotate(-102.072 1137.82 794.651)" fill="white"/>
<circle cx="1175.74" cy="750.011" r="1" transform="rotate(-102.072 1175.74 750.011)" fill="white"/>
<circle cx="1257.93" cy="681.184" r="1" transform="rotate(-102.072 1257.93 681.184)" fill="white"/>
<circle cx="1154.28" cy="685.37" r="1" transform="rotate(-102.072 1154.28 685.37)" fill="white"/>
<circle cx="1184.02" cy="622.31" r="1" transform="rotate(-102.072 1184.02 622.31)" fill="white"/>
<circle cx="1270.14" cy="747.825" r="1" transform="rotate(-102.072 1270.14 747.825)" fill="white"/>
</g>
<g style="mix-blend-mode:overlay">
<circle cx="1499.53" cy="599.766" r="1" transform="rotate(121.593 1499.53 599.766)" fill="white"/>
<circle cx="1441.27" cy="605.873" r="1" transform="rotate(121.593 1441.27 605.873)" fill="white"/>
<circle cx="1334.29" cy="598.915" r="1" transform="rotate(121.593 1334.29 598.915)" fill="white"/>
<circle cx="1412.16" cy="667.45" r="1" transform="rotate(121.593 1412.16 667.45)" fill="white"/>
<circle cx="1347.11" cy="692.537" r="1" transform="rotate(121.593 1347.11 692.537)" fill="white"/>
<circle cx="1371.47" cy="542.279" r="1" transform="rotate(121.593 1371.47 542.279)" fill="white"/>
<circle cx="1301.7" cy="640.818" r="1" transform="rotate(-163.407 1301.7 640.818)" fill="white"/>
<circle cx="1280.72" cy="586.128" r="1" transform="rotate(-163.407 1280.72 586.128)" fill="white"/>
<circle cx="1259.76" cy="480.995" r="1" transform="rotate(-163.407 1259.76 480.995)" fill="white"/>
<circle cx="1213.71" cy="573.949" r="1" transform="rotate(-163.407 1213.71 573.949)" fill="white"/>
<circle cx="1172.64" cy="517.61" r="1" transform="rotate(-163.407 1172.64 517.61)" fill="white"/>
<circle cx="1324.08" cy="502.25" r="1" transform="rotate(-163.407 1324.08 502.25)" fill="white"/>
<circle cx="1137.82" cy="794.651" r="1" transform="rotate(-102.072 1137.82 794.651)" fill="white"/>
<circle cx="1175.74" cy="750.011" r="1" transform="rotate(-102.072 1175.74 750.011)" fill="white"/>
<circle cx="1257.93" cy="681.184" r="1" transform="rotate(-102.072 1257.93 681.184)" fill="white"/>
<circle cx="1154.28" cy="685.37" r="1" transform="rotate(-102.072 1154.28 685.37)" fill="white"/>
<circle cx="1184.02" cy="622.31" r="1" transform="rotate(-102.072 1184.02 622.31)" fill="white"/>
<circle cx="1270.14" cy="747.825" r="1" transform="rotate(-102.072 1270.14 747.825)" fill="white"/>
</g>
</g>
<g filter="url(#filter9_d_324_13792)">
<g style="mix-blend-mode:overlay">
<circle cx="1183.96" cy="741.701" r="1" transform="rotate(163.248 1183.96 741.701)" fill="white"/>
<circle cx="1136.38" cy="707.545" r="1" transform="rotate(163.248 1136.38 707.545)" fill="white"/>
<circle cx="1061.07" cy="631.243" r="1" transform="rotate(163.248 1061.07 631.243)" fill="white"/>
<circle cx="1073.7" cy="734.205" r="1" transform="rotate(163.248 1073.7 734.205)" fill="white"/>
<circle cx="1008.43" cy="709.714" r="1" transform="rotate(163.248 1008.43 709.714)" fill="white"/>
<circle cx="1126.5" cy="613.639" r="1" transform="rotate(163.248 1126.5 613.639)" fill="white"/>
<circle cx="1008.87" cy="640.887" r="1" transform="rotate(-121.752 1008.87 640.887)" fill="white"/>
<circle cx="1029.54" cy="586.083" r="1" transform="rotate(-121.752 1029.54 586.083)" fill="white"/>
<circle cx="1083.76" cy="493.597" r="1" transform="rotate(-121.752 1083.76 493.597)" fill="white"/>
<circle cx="987.572" cy="532.444" r="1" transform="rotate(-121.752 987.572 532.444)" fill="white"/>
<circle cx="994.334" cy="463.054" r="1" transform="rotate(-121.752 994.334 463.054)" fill="white"/>
<circle cx="1117.69" cy="552.234" r="1" transform="rotate(-121.752 1117.69 552.234)" fill="white"/>
<circle cx="784.18" cy="646.9" r="1" transform="rotate(-60.4165 784.18 646.9)" fill="white"/>
<circle cx="842.185" cy="638.754" r="1" transform="rotate(-60.4165 842.185 638.754)" fill="white"/>
<circle cx="949.341" cy="641.958" r="1" transform="rotate(-60.4165 949.341 641.958)" fill="white"/>
<circle cx="869.116" cy="576.195" r="1" transform="rotate(-60.4165 869.116 576.195)" fill="white"/>
<circle cx="933.246" cy="548.842" r="1" transform="rotate(-60.4165 933.246 548.842)" fill="white"/>
<circle cx="914.169" cy="699.862" r="1" transform="rotate(-60.4165 914.169 699.862)" fill="white"/>
</g>
<g style="mix-blend-mode:overlay">
<circle cx="1183.96" cy="741.701" r="1" transform="rotate(163.248 1183.96 741.701)" fill="white"/>
<circle cx="1136.38" cy="707.545" r="1" transform="rotate(163.248 1136.38 707.545)" fill="white"/>
<circle cx="1061.07" cy="631.243" r="1" transform="rotate(163.248 1061.07 631.243)" fill="white"/>
<circle cx="1073.7" cy="734.205" r="1" transform="rotate(163.248 1073.7 734.205)" fill="white"/>
<circle cx="1008.43" cy="709.714" r="1" transform="rotate(163.248 1008.43 709.714)" fill="white"/>
<circle cx="1126.5" cy="613.639" r="1" transform="rotate(163.248 1126.5 613.639)" fill="white"/>
<circle cx="1008.87" cy="640.887" r="1" transform="rotate(-121.752 1008.87 640.887)" fill="white"/>
<circle cx="1029.54" cy="586.083" r="1" transform="rotate(-121.752 1029.54 586.083)" fill="white"/>
<circle cx="1083.76" cy="493.597" r="1" transform="rotate(-121.752 1083.76 493.597)" fill="white"/>
<circle cx="987.572" cy="532.444" r="1" transform="rotate(-121.752 987.572 532.444)" fill="white"/>
<circle cx="994.334" cy="463.054" r="1" transform="rotate(-121.752 994.334 463.054)" fill="white"/>
<circle cx="1117.69" cy="552.234" r="1" transform="rotate(-121.752 1117.69 552.234)" fill="white"/>
<circle cx="784.18" cy="646.9" r="1" transform="rotate(-60.4165 784.18 646.9)" fill="white"/>
<circle cx="842.185" cy="638.754" r="1" transform="rotate(-60.4165 842.185 638.754)" fill="white"/>
<circle cx="949.341" cy="641.958" r="1" transform="rotate(-60.4165 949.341 641.958)" fill="white"/>
<circle cx="869.116" cy="576.195" r="1" transform="rotate(-60.4165 869.116 576.195)" fill="white"/>
<circle cx="933.246" cy="548.842" r="1" transform="rotate(-60.4165 933.246 548.842)" fill="white"/>
<circle cx="914.169" cy="699.862" r="1" transform="rotate(-60.4165 914.169 699.862)" fill="white"/>
</g>
</g>
<g style="mix-blend-mode:overlay" filter="url(#filter10_f_324_13792)">
<g style="mix-blend-mode:overlay">
<circle cx="985.878" cy="901.607" r="1" transform="rotate(-165.159 985.878 901.607)" fill="white"/>
<circle cx="963.239" cy="847.584" r="1" transform="rotate(-165.159 963.239 847.584)" fill="white"/>
<circle cx="939.069" cy="743.141" r="1" transform="rotate(-165.159 939.069 743.141)" fill="white"/>
<circle cx="895.886" cy="837.459" r="1" transform="rotate(-165.159 895.886 837.459)" fill="white"/>
<circle cx="853.115" cy="782.402" r="1" transform="rotate(-165.159 853.115 782.402)" fill="white"/>
<circle cx="1004.02" cy="762.419" r="1" transform="rotate(-165.159 1004.02 762.419)" fill="white"/>
<circle cx="889.55" cy="724.008" r="1" transform="rotate(-90.1594 889.55 724.008)" fill="white"/>
<circle cx="935.872" cy="688.158" r="1" transform="rotate(-90.1594 935.872 688.158)" fill="white"/>
<circle cx="1030.5" cy="637.779" r="1" transform="rotate(-90.1594 1030.5 637.779)" fill="white"/>
<circle cx="928.22" cy="620.48" r="1" transform="rotate(-90.1594 928.22 620.48)" fill="white"/>
<circle cx="970.331" cy="564.916" r="1" transform="rotate(-90.1594 970.331 564.916)" fill="white"/>
<circle cx="1028.69" cy="705.505" r="1" transform="rotate(-90.1594 1028.69 705.505)" fill="white"/>
<circle cx="695.01" cy="611.42" r="1" transform="rotate(-28.824 695.01 611.42)" fill="white"/>
<circle cx="748.685" cy="634.869" r="1" transform="rotate(-28.824 748.685 634.869)" fill="white"/>
<circle cx="838.282" cy="693.734" r="1" transform="rotate(-28.824 838.282 693.734)" fill="white"/>
<circle cx="804.398" cy="595.69" r="1" transform="rotate(-28.824 804.398 595.69)" fill="white"/>
<circle cx="873.353" cy="605.988" r="1" transform="rotate(-28.824 873.353 605.988)" fill="white"/>
<circle cx="777.988" cy="724.631" r="1" transform="rotate(-28.824 777.988 724.631)" fill="white"/>
</g>
<g style="mix-blend-mode:overlay">
<circle cx="985.878" cy="901.607" r="1" transform="rotate(-165.159 985.878 901.607)" fill="white"/>
<circle cx="963.239" cy="847.584" r="1" transform="rotate(-165.159 963.239 847.584)" fill="white"/>
<circle cx="939.069" cy="743.141" r="1" transform="rotate(-165.159 939.069 743.141)" fill="white"/>
<circle cx="895.886" cy="837.459" r="1" transform="rotate(-165.159 895.886 837.459)" fill="white"/>
<circle cx="853.115" cy="782.402" r="1" transform="rotate(-165.159 853.115 782.402)" fill="white"/>
<circle cx="1004.02" cy="762.419" r="1" transform="rotate(-165.159 1004.02 762.419)" fill="white"/>
<circle cx="889.55" cy="724.008" r="1" transform="rotate(-90.1594 889.55 724.008)" fill="white"/>
<circle cx="935.872" cy="688.158" r="1" transform="rotate(-90.1594 935.872 688.158)" fill="white"/>
<circle cx="1030.5" cy="637.779" r="1" transform="rotate(-90.1594 1030.5 637.779)" fill="white"/>
<circle cx="928.22" cy="620.48" r="1" transform="rotate(-90.1594 928.22 620.48)" fill="white"/>
<circle cx="970.331" cy="564.916" r="1" transform="rotate(-90.1594 970.331 564.916)" fill="white"/>
<circle cx="1028.69" cy="705.505" r="1" transform="rotate(-90.1594 1028.69 705.505)" fill="white"/>
<circle cx="695.01" cy="611.42" r="1" transform="rotate(-28.824 695.01 611.42)" fill="white"/>
<circle cx="748.685" cy="634.869" r="1" transform="rotate(-28.824 748.685 634.869)" fill="white"/>
<circle cx="838.282" cy="693.734" r="1" transform="rotate(-28.824 838.282 693.734)" fill="white"/>
<circle cx="804.398" cy="595.69" r="1" transform="rotate(-28.824 804.398 595.69)" fill="white"/>
<circle cx="873.353" cy="605.988" r="1" transform="rotate(-28.824 873.353 605.988)" fill="white"/>
<circle cx="777.988" cy="724.631" r="1" transform="rotate(-28.824 777.988 724.631)" fill="white"/>
</g>
</g>
<g style="mix-blend-mode:overlay" filter="url(#filter11_f_324_13792)">
<g style="mix-blend-mode:overlay">
<circle cx="985.878" cy="901.607" r="1" transform="rotate(-165.159 985.878 901.607)" fill="white"/>
<circle cx="963.239" cy="847.584" r="1" transform="rotate(-165.159 963.239 847.584)" fill="white"/>
<circle cx="939.069" cy="743.141" r="1" transform="rotate(-165.159 939.069 743.141)" fill="white"/>
<circle cx="895.886" cy="837.459" r="1" transform="rotate(-165.159 895.886 837.459)" fill="white"/>
<circle cx="853.115" cy="782.402" r="1" transform="rotate(-165.159 853.115 782.402)" fill="white"/>
<circle cx="1004.02" cy="762.419" r="1" transform="rotate(-165.159 1004.02 762.419)" fill="white"/>
<circle cx="889.55" cy="724.008" r="1" transform="rotate(-90.1594 889.55 724.008)" fill="white"/>
<circle cx="935.872" cy="688.158" r="1" transform="rotate(-90.1594 935.872 688.158)" fill="white"/>
<circle cx="1030.5" cy="637.779" r="1" transform="rotate(-90.1594 1030.5 637.779)" fill="white"/>
<circle cx="928.22" cy="620.48" r="1" transform="rotate(-90.1594 928.22 620.48)" fill="white"/>
<circle cx="970.331" cy="564.916" r="1" transform="rotate(-90.1594 970.331 564.916)" fill="white"/>
<circle cx="1028.69" cy="705.505" r="1" transform="rotate(-90.1594 1028.69 705.505)" fill="white"/>
<circle cx="695.01" cy="611.42" r="1" transform="rotate(-28.824 695.01 611.42)" fill="white"/>
<circle cx="748.685" cy="634.869" r="1" transform="rotate(-28.824 748.685 634.869)" fill="white"/>
<circle cx="838.282" cy="693.734" r="1" transform="rotate(-28.824 838.282 693.734)" fill="white"/>
<circle cx="804.398" cy="595.69" r="1" transform="rotate(-28.824 804.398 595.69)" fill="white"/>
<circle cx="873.353" cy="605.988" r="1" transform="rotate(-28.824 873.353 605.988)" fill="white"/>
<circle cx="777.988" cy="724.631" r="1" transform="rotate(-28.824 777.988 724.631)" fill="white"/>
</g>
<g style="mix-blend-mode:overlay">
<circle cx="985.878" cy="901.607" r="1" transform="rotate(-165.159 985.878 901.607)" fill="white"/>
<circle cx="963.239" cy="847.584" r="1" transform="rotate(-165.159 963.239 847.584)" fill="white"/>
<circle cx="939.069" cy="743.141" r="1" transform="rotate(-165.159 939.069 743.141)" fill="white"/>
<circle cx="895.886" cy="837.459" r="1" transform="rotate(-165.159 895.886 837.459)" fill="white"/>
<circle cx="853.115" cy="782.402" r="1" transform="rotate(-165.159 853.115 782.402)" fill="white"/>
<circle cx="1004.02" cy="762.419" r="1" transform="rotate(-165.159 1004.02 762.419)" fill="white"/>
<circle cx="889.55" cy="724.008" r="1" transform="rotate(-90.1594 889.55 724.008)" fill="white"/>
<circle cx="935.872" cy="688.158" r="1" transform="rotate(-90.1594 935.872 688.158)" fill="white"/>
<circle cx="1030.5" cy="637.779" r="1" transform="rotate(-90.1594 1030.5 637.779)" fill="white"/>
<circle cx="928.22" cy="620.48" r="1" transform="rotate(-90.1594 928.22 620.48)" fill="white"/>
<circle cx="970.331" cy="564.916" r="1" transform="rotate(-90.1594 970.331 564.916)" fill="white"/>
<circle cx="1028.69" cy="705.505" r="1" transform="rotate(-90.1594 1028.69 705.505)" fill="white"/>
<circle cx="695.01" cy="611.42" r="1" transform="rotate(-28.824 695.01 611.42)" fill="white"/>
<circle cx="748.685" cy="634.869" r="1" transform="rotate(-28.824 748.685 634.869)" fill="white"/>
<circle cx="838.282" cy="693.734" r="1" transform="rotate(-28.824 838.282 693.734)" fill="white"/>
<circle cx="804.398" cy="595.69" r="1" transform="rotate(-28.824 804.398 595.69)" fill="white"/>
<circle cx="873.353" cy="605.988" r="1" transform="rotate(-28.824 873.353 605.988)" fill="white"/>
<circle cx="777.988" cy="724.631" r="1" transform="rotate(-28.824 777.988 724.631)" fill="white"/>
</g>
</g>
<g filter="url(#filter12_f_324_13792)">
<circle cx="671.14" cy="637.39" r="111.677" fill="url(#paint3_linear_324_13792)" fill-opacity="0.3"/>
</g>
<defs>
<filter id="filter0_f_324_13792" x="959.852" y="303.821" width="446.211" height="410.179" filterUnits="userSpaceOnUse" color-interpolation-filters="sRGB">
<feFlood flood-opacity="0" result="BackgroundImageFix"/>
<feBlend mode="normal" in="SourceGraphic" in2="BackgroundImageFix" result="shape"/>
<feGaussianBlur stdDeviation="75" result="effect1_foregroundBlur_324_13792"/>
</filter>
<filter id="filter1_f_324_13792" x="785" y="-16.354" width="719.943" height="719.944" filterUnits="userSpaceOnUse" color-interpolation-filters="sRGB">
<feFlood flood-opacity="0" result="BackgroundImageFix"/>
<feBlend mode="normal" in="SourceGraphic" in2="BackgroundImageFix" result="shape"/>
<feGaussianBlur stdDeviation="50" result="effect1_foregroundBlur_324_13792"/>
</filter>
<filter id="filter2_f_324_13792" x="474.188" y="92" width="1180" height="984.972" filterUnits="userSpaceOnUse" color-interpolation-filters="sRGB">
<feFlood flood-opacity="0" result="BackgroundImageFix"/>
<feBlend mode="normal" in="SourceGraphic" in2="BackgroundImageFix" result="shape"/>
<feGaussianBlur stdDeviation="150" result="effect1_foregroundBlur_324_13792"/>
</filter>
<filter id="filter3_f_324_13792" x="-33.0781" y="-61.2432" width="1180" height="934.436" filterUnits="userSpaceOnUse" color-interpolation-filters="sRGB">
<feFlood flood-opacity="0" result="BackgroundImageFix"/>
<feBlend mode="normal" in="SourceGraphic" in2="BackgroundImageFix" result="shape"/>
<feGaussianBlur stdDeviation="150" result="effect1_foregroundBlur_324_13792"/>
</filter>
<filter id="filter4_f_324_13792" x="1030.1" y="131.711" width="446.211" height="446.211" filterUnits="userSpaceOnUse" color-interpolation-filters="sRGB">
<feFlood flood-opacity="0" result="BackgroundImageFix"/>
<feBlend mode="normal" in="SourceGraphic" in2="BackgroundImageFix" result="shape"/>
<feGaussianBlur stdDeviation="75" result="effect1_foregroundBlur_324_13792"/>
</filter>
<filter id="filter5_d_324_13792" x="1077.02" y="363" width="331.478" height="365.491" filterUnits="userSpaceOnUse" color-interpolation-filters="sRGB">
<feFlood flood-opacity="0" result="BackgroundImageFix"/>
<feColorMatrix in="SourceAlpha" type="matrix" values="0 0 0 0 0 0 0 0 0 0 0 0 0 0 0 0 0 0 127 0" result="hardAlpha"/>
<feOffset dy="4"/>
<feGaussianBlur stdDeviation="2"/>
<feComposite in2="hardAlpha" operator="out"/>
<feColorMatrix type="matrix" values="0 0 0 0 0 0 0 0 0 0 0 0 0 0 0 0 0 0 0.25 0"/>
<feBlend mode="normal" in2="BackgroundImageFix" result="effect1_dropShadow_324_13792"/>
<feBlend mode="normal" in="SourceGraphic" in2="effect1_dropShadow_324_13792" result="shape"/>
</filter>
<filter id="filter6_d_324_13792" x="1051.87" y="89.4072" width="302.194" height="396.534" filterUnits="userSpaceOnUse" color-interpolation-filters="sRGB">
<feFlood flood-opacity="0" result="BackgroundImageFix"/>
<feColorMatrix in="SourceAlpha" type="matrix" values="0 0 0 0 0 0 0 0 0 0 0 0 0 0 0 0 0 0 127 0" result="hardAlpha"/>
<feOffset dy="4"/>
<feGaussianBlur stdDeviation="2"/>
<feComposite in2="hardAlpha" operator="out"/>
<feColorMatrix type="matrix" values="0 0 0 0 0 0 0 0 0 0 0 0 0 0 0 0 0 0 0.25 0"/>
<feBlend mode="normal" in2="BackgroundImageFix" result="effect1_dropShadow_324_13792"/>
<feBlend mode="normal" in="SourceGraphic" in2="effect1_dropShadow_324_13792" result="shape"/>
</filter>
<filter id="filter7_f_324_13792" x="1134.82" y="477.995" width="367.708" height="319.656" filterUnits="userSpaceOnUse" color-interpolation-filters="sRGB">
<feFlood flood-opacity="0" result="BackgroundImageFix"/>
<feBlend mode="normal" in="SourceGraphic" in2="BackgroundImageFix" result="shape"/>
<feGaussianBlur stdDeviation="1" result="effect1_foregroundBlur_324_13792"/>
</filter>
<filter id="filter8_f_324_13792" x="1134.82" y="477.995" width="367.708" height="319.656" filterUnits="userSpaceOnUse" color-interpolation-filters="sRGB">
<feFlood flood-opacity="0" result="BackgroundImageFix"/>
<feBlend mode="normal" in="SourceGraphic" in2="BackgroundImageFix" result="shape"/>
<feGaussianBlur stdDeviation="1" result="effect1_foregroundBlur_324_13792"/>
</filter>
<filter id="filter9_d_324_13792" x="779.18" y="462.053" width="409.782" height="288.648" filterUnits="userSpaceOnUse" color-interpolation-filters="sRGB">
<feFlood flood-opacity="0" result="BackgroundImageFix"/>
<feColorMatrix in="SourceAlpha" type="matrix" values="0 0 0 0 0 0 0 0 0 0 0 0 0 0 0 0 0 0 127 0" result="hardAlpha"/>
<feOffset dy="4"/>
<feGaussianBlur stdDeviation="2"/>
<feComposite in2="hardAlpha" operator="out"/>
<feColorMatrix type="matrix" values="0 0 0 0 0 0 0 0 0 0 0 0 0 0 0 0 0 0 0.25 0"/>
<feBlend mode="normal" in2="BackgroundImageFix" result="effect1_dropShadow_324_13792"/>
<feBlend mode="normal" in="SourceGraphic" in2="effect1_dropShadow_324_13792" result="shape"/>
</filter>
<filter id="filter10_f_324_13792" x="692.01" y="561.916" width="341.491" height="342.691" filterUnits="userSpaceOnUse" color-interpolation-filters="sRGB">
<feFlood flood-opacity="0" result="BackgroundImageFix"/>
<feBlend mode="normal" in="SourceGraphic" in2="BackgroundImageFix" result="shape"/>
<feGaussianBlur stdDeviation="1" result="effect1_foregroundBlur_324_13792"/>
</filter>
<filter id="filter11_f_324_13792" x="692.01" y="561.916" width="341.491" height="342.691" filterUnits="userSpaceOnUse" color-interpolation-filters="sRGB">
<feFlood flood-opacity="0" result="BackgroundImageFix"/>
<feBlend mode="normal" in="SourceGraphic" in2="BackgroundImageFix" result="shape"/>
<feGaussianBlur stdDeviation="1" result="effect1_foregroundBlur_324_13792"/>
</filter>
<filter id="filter12_f_324_13792" x="439.463" y="405.713" width="463.354" height="463.354" filterUnits="userSpaceOnUse" color-interpolation-filters="sRGB">
<feFlood flood-opacity="0" result="BackgroundImageFix"/>
<feBlend mode="normal" in="SourceGraphic" in2="BackgroundImageFix" result="shape"/>
<feGaussianBlur stdDeviation="60" result="effect1_foregroundBlur_324_13792"/>
</filter>
<radialGradient id="paint0_radial_324_13792" cx="0" cy="0" r="1" gradientUnits="userSpaceOnUse" gradientTransform="translate(1228.82 120.526) rotate(105.66) scale(252.464 355.957)">
<stop stop-color="#38EDAC"/>
<stop offset="1"/>
</radialGradient>
<linearGradient id="paint1_linear_324_13792" x1="1064.19" y1="392" x2="1148.33" y2="745.527" gradientUnits="userSpaceOnUse">
<stop stop-color="#99ADFB"/>
<stop offset="1"/>
</linearGradient>
<linearGradient id="paint2_linear_324_13792" x1="556.921" y1="238.757" x2="621.267" y2="549.968" gradientUnits="userSpaceOnUse">
<stop stop-color="#506278"/>
<stop offset="1"/>
</linearGradient>
<linearGradient id="paint3_linear_324_13792" x1="671.14" y1="525.713" x2="745.552" y2="743.034" gradientUnits="userSpaceOnUse">
<stop stop-color="#9EA9FF"/>
<stop offset="1"/>
</linearGradient>
</defs>
</svg>
